<?xml version="1.0" encoding="UTF-8"?>
<!DOCTYPE svg PUBLIC "-//W3C//DTD SVG 1.1//EN" "http://www.w3.org/Graphics/SVG/1.1/DTD/svg11.dtd">
<svg xmlns="http://www.w3.org/2000/svg" version="1.1" width="2264px" height="2264px" style="shape-rendering:geometricPrecision; text-rendering:geometricPrecision; image-rendering:optimizeQuality; fill-rule:evenodd; clip-rule:evenodd" xmlns:xlink="http://www.w3.org/1999/xlink">
<g><path style="opacity:0.998" fill="#e2e6e4" d="M 672.5,175.5 C 1123.5,175.5 1574.5,175.5 2025.5,175.5C 2023.32,297.838 2020.82,420.172 2018,542.5C 2017.33,543.833 2016.67,545.167 2016,546.5C 1865.77,701.308 1715.77,856.308 1566,1011.5C 1569.19,875.832 1572.69,740.165 1576.5,604.5C 1343.49,610.648 1110.49,617.148 877.5,624C 803,695.833 728.5,767.667 654,839.5C 653.5,935.499 653.333,1031.5 653.5,1127.5C 925.469,1124.04 1197.47,1121.54 1469.5,1120C 1300.5,1285 1131.5,1450 962.5,1615C 722.198,1617.46 481.864,1618.96 241.5,1619.5C 239.367,1300.18 238.2,980.847 238,661.5C 383.075,499.657 527.909,337.657 672.5,175.5 Z"/></g>
<g><path style="opacity:0.766" fill="#010000" d="M 1274.5,1610.5 C 1274.5,1611.17 1274.83,1611.5 1275.5,1611.5C 1526.83,1613.28 1778.16,1614.61 2029.5,1615.5C 2029.67,1361.5 2029.5,1107.5 2029,853.5C 2013.97,868.702 1998.8,883.702 1983.5,898.5C 1983.5,898.167 1983.5,897.833 1983.5,897.5C 1998.8,881.701 2014.3,866.035 2030,850.5C 2030.5,1105.83 2030.67,1361.17 2030.5,1616.5C 1780.17,1615.65 1529.83,1614.48 1279.5,1613C 1277.17,1612.67 1274.83,1612.33 1272.5,1612C 1273.04,1611.28 1273.71,1610.78 1274.5,1610.5 Z"/></g>
<g><path style="opacity:1" fill="#f68900" d="M 1275.5,1611.5 C 1511.5,1373.83 1747.5,1136.17 1983.5,898.5C 1998.8,883.702 2013.97,868.702 2029,853.5C 2029.5,1107.5 2029.67,1361.5 2029.5,1615.5C 1778.16,1614.61 1526.83,1613.28 1275.5,1611.5 Z"/></g>
<g><path style="opacity:0.45" fill="#140800" d="M 1983.5,897.5 C 1983.5,897.833 1983.5,898.167 1983.5,898.5C 1747.5,1136.17 1511.5,1373.83 1275.5,1611.5C 1274.83,1611.5 1274.5,1611.17 1274.5,1610.5C 1276.83,1608 1279,1605.33 1281,1602.5C 1515.4,1367.61 1749.56,1132.61 1983.5,897.5 Z"/></g>
<g><path style="opacity:0.98" fill="#e2e6e4" d="M 466.5,1706.5 C 534.167,1706.33 601.834,1706.5 669.5,1707C 695.581,1707.43 719.914,1713.93 742.5,1726.5C 775.134,1748.09 792.634,1778.76 795,1818.5C 798.467,1851.09 791.467,1881.09 774,1908.5C 764.614,1919.7 753.614,1929.03 741,1936.5C 721.793,1945.61 701.626,1950.77 680.5,1952C 624.833,1952.33 569.167,1952.67 513.5,1953C 510.542,1953.23 508.042,1954.4 506,1956.5C 505.501,1961.15 505.334,1965.82 505.5,1970.5C 564.837,1970.17 624.17,1970.5 683.5,1971.5C 700.58,2010.49 717.247,2049.66 733.5,2089C 733.01,2090.98 732.01,2092.65 730.5,2094C 620.167,2094.67 509.833,2094.67 399.5,2094C 395.215,2089.26 391.048,2084.43 387,2079.5C 386.041,2032.81 386.374,1986.14 388,1939.5C 393.716,1899.63 415.216,1872.3 452.5,1857.5C 465.693,1853.56 479.026,1850.73 492.5,1849C 549.5,1848.67 606.5,1848.33 663.5,1848C 673.181,1848.99 677.348,1844.82 676,1835.5C 673.734,1834.04 671.234,1833.21 668.5,1833C 583.167,1832.5 497.834,1832.33 412.5,1832.5C 409.129,1823.42 405.462,1814.42 401.5,1805.5C 423.354,1772.57 445.021,1739.57 466.5,1706.5 Z"/></g>
<g><path style="opacity:0.989" fill="#e2e6e4" d="M 868.5,1706.5 C 908.501,1706.33 948.501,1706.5 988.5,1707C 992.785,1711.74 996.952,1716.57 1001,1721.5C 1001.67,1840.83 1001.67,1960.17 1001,2079.5C 996.952,2084.43 992.785,2089.26 988.5,2094C 956.495,2094.83 924.495,2094.67 892.5,2093.5C 888.522,2088.35 884.355,2083.35 880,2078.5C 879.5,1996.5 879.333,1914.5 879.5,1832.5C 859.489,1832.83 839.489,1832.5 819.5,1831.5C 815.541,1823.12 811.875,1814.62 808.5,1806C 828.615,1772.94 848.615,1739.78 868.5,1706.5 Z"/></g>
<g><path style="opacity:0.992" fill="#e2e6e4" d="M 1157.5,1706.5 C 1216.5,1706.33 1275.5,1706.5 1334.5,1707C 1366.64,1708.1 1394.98,1718.76 1419.5,1739C 1430.8,1750.65 1439.3,1764.15 1445,1779.5C 1446.96,1787.64 1449.29,1795.64 1452,1803.5C 1452.33,1849.17 1452.67,1894.83 1453,1940.5C 1458.77,1967.21 1458.44,1993.87 1452,2020.5C 1439.1,2055.07 1414.93,2077.57 1379.5,2088C 1365.69,2091.3 1351.69,2093.3 1337.5,2094C 1276.5,2094.67 1215.5,2094.67 1154.5,2094C 1124,2093.57 1096.34,2084.74 1071.5,2067.5C 1058.71,2056.54 1049.21,2043.2 1043,2027.5C 1040.49,2018.44 1037.82,2009.44 1035,2000.5C 1036.26,1935.49 1038.26,1870.49 1041,1805.5C 1045.7,1765.23 1066.2,1736.39 1102.5,1719C 1120.3,1711.94 1138.63,1707.78 1157.5,1706.5 Z M 1152.5,1822.5 C 1215.17,1822.5 1277.83,1822.5 1340.5,1822.5C 1340.5,1833.17 1340.5,1843.83 1340.5,1854.5C 1277.83,1854.5 1215.17,1854.5 1152.5,1854.5C 1152.5,1843.83 1152.5,1833.17 1152.5,1822.5 Z M 1152.5,1946.5 C 1215.17,1946.5 1277.83,1946.5 1340.5,1946.5C 1340.5,1956.5 1340.5,1966.5 1340.5,1976.5C 1277.83,1976.5 1215.17,1976.5 1152.5,1976.5C 1152.5,1966.5 1152.5,1956.5 1152.5,1946.5 Z"/></g>
<g><path style="opacity:0.98" fill="#e2e6e4" d="M 1508.5,1706.5 C 1623.74,1706.17 1738.9,1706.5 1854,1707.5C 1857.98,1716.09 1861.31,1724.75 1864,1733.5C 1842.4,1766.19 1820.9,1798.86 1799.5,1831.5C 1738.5,1832.5 1677.5,1832.83 1616.5,1832.5C 1616.5,1837.83 1616.5,1843.17 1616.5,1848.5C 1668.17,1848.33 1719.83,1848.5 1771.5,1849C 1840.42,1855.42 1875.75,1893.25 1877.5,1962.5C 1877.71,2040.44 1839.38,2083.94 1762.5,2093C 1706.85,2094.62 1651.19,2094.95 1595.5,2094C 1577.34,2057.52 1559.84,2020.68 1543,1983.5C 1542.9,1986.9 1542.07,1990.07 1540.5,1993C 1539.83,1993.67 1539.17,1993.67 1538.5,1993C 1537.83,1991.67 1536.83,1990.67 1535.5,1990C 1538.38,1983.79 1542.05,1977.62 1546.5,1971.5C 1614.17,1970.83 1681.83,1970.17 1749.5,1969.5C 1759.68,1968.14 1762.01,1963.14 1756.5,1954.5C 1754.56,1953.81 1752.56,1953.31 1750.5,1953C 1670.17,1952.67 1589.83,1952.33 1509.5,1952C 1504.98,1947.32 1500.65,1942.48 1496.5,1937.5C 1495.33,1865.5 1495.17,1793.5 1496,1721.5C 1500.17,1716.47 1504.34,1711.47 1508.5,1706.5 Z"/></g>
<g><path style="opacity:0.004" fill="#e2e6e4" d="M 1505.5,2032.5 C 1506.83,2033.17 1506.83,2033.17 1505.5,2032.5 Z"/></g>
<g><path style="opacity:0.007" fill="#e2e6e4" d="M 1504.5,2035.5 C 1504.56,2034.96 1504.89,2034.62 1505.5,2034.5C 1506.77,2035.26 1506.77,2035.92 1505.5,2036.5C 1505.5,2035.83 1505.17,2035.5 1504.5,2035.5 Z"/></g>
<g><path style="opacity:0.025" fill="#e2e6e4" d="M 1504.5,2035.5 C 1505.17,2035.5 1505.5,2035.83 1505.5,2036.5C 1503.84,2049.03 1498.18,2059.2 1488.5,2067C 1488.49,2068.58 1488.83,2070.25 1489.5,2072C 1487.58,2074.43 1487.58,2077.1 1489.5,2080C 1489.15,2081.26 1488.48,2081.59 1487.5,2081C 1488.63,2079.98 1488.3,2079.32 1486.5,2079C 1486.83,2078.67 1487.17,2078.33 1487.5,2078C 1484.72,2074.95 1483.22,2071.45 1483,2067.5C 1490.45,2056.91 1497.62,2046.24 1504.5,2035.5 Z"/></g>
</svg>
