<?xml version="1.0" encoding="UTF-8"?>
<!DOCTYPE svg PUBLIC "-//W3C//DTD SVG 1.1//EN" "http://www.w3.org/Graphics/SVG/1.1/DTD/svg11.dtd">
<svg xmlns="http://www.w3.org/2000/svg" version="1.1" width="1428px" height="1381px" style="shape-rendering:geometricPrecision; text-rendering:geometricPrecision; image-rendering:optimizeQuality; fill-rule:evenodd; clip-rule:evenodd" xmlns:xlink="http://www.w3.org/1999/xlink">
<g><path style="opacity:0.995" fill="#ec2026" d="M 430.5,0.5 C 480.226,-2.24324 528.559,4.59009 575.5,21C 666.901,58.4364 719.401,126.27 733,224.5C 737.902,263.958 734.235,302.625 722,340.5C 709.264,381.634 690.931,419.967 667,455.5C 664.394,459.059 661.56,462.393 658.5,465.5C 628.901,437.738 599.401,409.738 570,381.5C 559.188,369.201 548.855,356.534 539,343.5C 538.333,341.833 538.333,340.167 539,338.5C 560.873,296.444 565.873,252.444 554,206.5C 537.164,154.345 501.33,129.845 446.5,133C 411.728,139.117 385.895,157.617 369,188.5C 357.887,210.838 352.887,234.504 354,259.5C 343.26,285.794 336.927,313.128 335,341.5C 333.719,356.178 333.219,370.845 333.5,385.5C 309.984,372.316 290.484,354.649 275,332.5C 260.116,299.399 245.783,266.066 232,232.5C 220.398,267.64 209.398,302.973 199,338.5C 198.17,343.143 197.503,347.81 197,352.5C 196.646,365.89 196.479,379.223 196.5,392.5C 183.408,374.431 174.241,354.431 169,332.5C 144.496,216.292 179.329,122.792 273.5,52C 321.018,20.2027 373.352,3.03604 430.5,0.5 Z"/></g>
<g><path style="opacity:0.99" fill="#ec2026" d="M 397.5,253.5 C 396.612,282.846 403.446,310.513 418,336.5C 429.382,355.925 442.716,373.925 458,390.5C 489.598,421.769 522.098,451.936 555.5,481C 567.333,492.833 579.167,504.667 591,516.5C 600.101,526.932 608.435,537.932 616,549.5C 616.122,547.831 615.788,546.165 615,544.5C 604.566,523.952 591.899,504.952 577,487.5C 551.097,460.261 523.93,434.428 495.5,410C 484.601,399.77 474.434,388.937 465,377.5C 457.057,347.246 458.057,317.246 468,287.5C 470.72,280.391 474.22,273.725 478.5,267.5C 479.775,304.161 491.275,337.161 513,366.5C 532.622,392.132 554.455,415.965 578.5,438C 601.604,458.434 624.104,479.601 646,501.5C 662.97,520.091 676.97,540.757 688,563.5C 699.151,588.057 702.984,613.724 699.5,640.5C 718.546,645.886 728.546,658.552 729.5,678.5C 748.695,669.973 763.028,656.306 772.5,637.5C 778.425,688.143 765.258,733.143 733,772.5C 722.747,783.929 710.913,793.263 697.5,800.5C 697.167,800.167 696.833,799.833 696.5,799.5C 706.801,756.934 690.467,731.434 647.5,723C 640.554,721.627 633.554,720.627 626.5,720C 614.819,719.833 603.152,719.333 591.5,718.5C 598.498,707.681 603.665,696.015 607,683.5C 610.289,670.233 605.455,661.733 592.5,658C 575.028,654.183 557.362,652.85 539.5,654C 505.5,655.25 472.167,660.583 439.5,670C 459.733,670.956 479.733,673.623 499.5,678C 501.421,678.36 503.088,679.194 504.5,680.5C 494.002,698.826 487.669,718.493 485.5,739.5C 487.251,759.541 496.584,764.374 513.5,754C 516.333,751.167 519.167,748.333 522,745.5C 518.838,757.974 516.171,770.64 514,783.5C 508.38,810.546 519.213,822.046 546.5,818C 549.796,817.543 552.963,816.709 556,815.5C 555.772,820.306 554.105,824.639 551,828.5C 535.938,849.212 516.438,864.379 492.5,874C 472.101,883.101 450.768,887.767 428.5,888C 448.981,876.519 464.314,860.185 474.5,839C 474.333,838.5 474.167,838 474,837.5C 456.677,843.644 438.844,845.644 420.5,843.5C 438.921,830.535 450.421,812.868 455,790.5C 461.667,749.821 446,721.821 408,706.5C 380.868,697.908 354.035,698.741 327.5,709C 322.175,711.327 317.175,714.16 312.5,717.5C 312.167,717 311.833,716.5 311.5,716C 328.807,673.692 358.14,642.692 399.5,623C 378.052,616.222 356.385,610.555 334.5,606C 352.661,592.922 372.661,583.589 394.5,578C 416.352,571.302 438.685,567.302 461.5,566C 407.54,558.259 356.54,567.259 308.5,593C 300.82,597.506 293.487,602.506 286.5,608C 280.833,612.333 275.833,617.333 271.5,623C 285.394,624.788 299.227,626.955 313,629.5C 321.126,630.822 328.959,632.988 336.5,636C 305.402,643.215 276.069,654.882 248.5,671C 217.79,688.209 189.457,708.709 163.5,732.5C 163.167,732 162.833,731.5 162.5,731C 167.917,708.914 171.917,686.581 174.5,664C 171.745,634.574 155.745,617.24 126.5,612C 118.62,611.104 110.787,610.27 103,609.5C 84.3631,610.58 65.8631,612.747 47.5,616C 60.2609,604.126 73.9276,593.459 88.5,584C 119.338,566.413 150.338,549.08 181.5,532C 189.828,526.909 197.328,520.742 204,513.5C 208.464,505.562 208.464,497.562 204,489.5C 188.5,463.333 167.667,442.5 141.5,427C 176.626,424.51 211.292,427.343 245.5,435.5C 246.167,435.167 246.833,434.833 247.5,434.5C 230.358,404.004 225.858,371.671 234,337.5C 234.36,335.579 235.194,333.912 236.5,332.5C 246.583,354.468 260.917,373.301 279.5,389C 290.22,397.387 301.22,405.387 312.5,413C 338.003,428.252 363.669,443.252 389.5,458C 407.226,469.131 423.393,482.298 438,497.5C 441.333,502.167 444.667,506.833 448,511.5C 446.744,504.078 444.077,497.078 440,490.5C 423.667,464.833 402.667,443.833 377,427.5C 370.73,408.01 367.563,388.01 367.5,367.5C 367.809,336.648 372.975,306.648 383,277.5C 386.111,268.274 390.944,260.274 397.5,253.5 Z M 548.5,558.5 C 548.56,557.957 548.893,557.624 549.5,557.5C 579.77,570.101 600.437,591.768 611.5,622.5C 586.813,620.979 569.313,608.979 559,586.5C 554.976,577.251 551.476,567.917 548.5,558.5 Z"/></g>
<g><path style="opacity:0.989" fill="#ec2026" d="M 1427.5,604.5 C 1427.5,604.833 1427.5,605.167 1427.5,605.5C 1359.67,595.026 1294.67,604.526 1232.5,634C 1225.34,638.339 1218.34,642.839 1211.5,647.5C 1177.27,625.353 1139.93,617.853 1099.5,625C 1058.4,632.125 1024.23,651.292 997,682.5C 969.301,715.563 944.301,750.563 922,787.5C 904.954,816.925 888.954,846.925 874,877.5C 852.844,860.347 831.678,843.18 810.5,826C 800.241,819.704 789.574,814.204 778.5,809.5C 827.984,740.846 887.984,683.346 958.5,637C 1000.12,610.344 1045.12,591.677 1093.5,581C 1106.06,578.514 1118.72,576.847 1131.5,576C 1090.27,573.444 1050.27,579.444 1011.5,594C 940.601,619.34 880.435,660.174 831,716.5C 834.87,697.566 841.537,679.566 851,662.5C 880.418,608.738 919.585,563.238 968.5,526C 975.666,521.249 983,516.749 990.5,512.5C 990.833,512.667 991.167,512.833 991.5,513C 980.214,526.305 971.381,541.139 965,557.5C 963.306,568.468 967.806,572.301 978.5,569C 984.427,566.065 990.094,562.732 995.5,559C 1010.83,546.333 1026.17,533.667 1041.5,521C 1061.49,505.04 1083.49,492.373 1107.5,483C 1119.19,478.928 1131.19,476.928 1143.5,477C 1126.05,485.454 1110.55,496.621 1097,510.5C 1088.34,525.362 1092.51,532.195 1109.5,531C 1124.55,526.488 1139.55,521.822 1154.5,517C 1208.59,502.443 1261.59,505.776 1313.5,527C 1356.91,545.178 1394.91,571.012 1427.5,604.5 Z"/></g>
<g><path style="opacity:0.996" fill="#ec2026" d="M 132.5,651.5 C 134.903,651.393 136.736,652.393 138,654.5C 139.899,657.374 140.733,660.541 140.5,664C 137.054,686.897 133.221,709.73 129,732.5C 126.556,764.496 124.556,796.496 123,828.5C 148.432,799.732 174.599,771.565 201.5,744C 226.822,723.541 254.155,706.041 283.5,691.5C 283.833,691.833 284.167,692.167 284.5,692.5C 281.471,698.891 279.304,705.557 278,712.5C 273.608,737.853 269.108,763.186 264.5,788.5C 264.833,789.5 265.167,790.5 265.5,791.5C 290.486,773.353 316.153,756.186 342.5,740C 360.416,733.228 378.416,732.895 396.5,739C 355.978,779.845 326.478,827.679 308,882.5C 290.682,935.123 291.349,987.456 310,1039.5C 334.008,1099.84 378.175,1134.34 442.5,1143C 467.177,1144.94 490.844,1140.94 513.5,1131C 540.879,1118.65 565.546,1102.32 587.5,1082C 617.494,1053.53 643.494,1022.03 665.5,987.5C 706.017,1019.19 745.517,1052.19 784,1086.5C 784.85,1088.01 785.683,1089.51 786.5,1091C 753.93,1158.24 709.93,1216.9 654.5,1267C 565.001,1340.3 462.668,1368.63 347.5,1352C 286.448,1341.13 232.448,1315.8 185.5,1276C 166.805,1258.32 149.972,1239.15 135,1218.5C 125.849,1208.24 118.515,1209.24 113,1221.5C 112.001,1240.84 115.501,1259.34 123.5,1277C 122.5,1277.67 121.5,1277.67 120.5,1277C 50.7484,1207.16 16.0818,1122.5 16.5,1023C 17.4184,967.323 26.9184,913.156 45,860.5C 47.527,853.818 46.6936,847.651 42.5,842C 37.3889,840.889 32.7223,841.889 28.5,845C 18,852.833 8.83333,862 1,872.5C 5.03089,828.103 19.0309,787.103 43,749.5C 67.4212,711.911 97.2546,679.244 132.5,651.5 Z"/></g>
<g><path style="opacity:0.995" fill="#ec2026" d="M 1142.5,1380.5 C 1131.83,1380.5 1121.17,1380.5 1110.5,1380.5C 1023.44,1370.17 967.27,1322.84 942,1238.5C 939.461,1227.6 937.461,1216.6 936,1205.5C 913.527,1231.04 905.193,1260.71 911,1294.5C 914.452,1314.4 922.952,1331.74 936.5,1346.5C 936,1346.83 935.5,1347.17 935,1347.5C 880.397,1329.23 847.397,1291.9 836,1235.5C 835.011,1226.86 834.511,1218.2 834.5,1209.5C 836.155,1183.85 836.988,1158.18 837,1132.5C 834.973,1100.95 822.14,1074.78 798.5,1054C 753.083,1015.25 707.083,977.245 660.5,940C 628.866,912.146 613.7,876.98 615,834.5C 611.905,818.816 604.071,805.982 591.5,796C 576.085,784.589 561.252,772.423 547,759.5C 532.474,740.7 528.141,719.7 534,696.5C 539.309,680.706 541.643,681.706 541,699.5C 545.07,713.806 553.57,724.639 566.5,732C 574.398,736.188 582.732,739.188 591.5,741C 607.541,742.695 623.541,744.695 639.5,747C 653.507,750.024 663.673,757.857 670,770.5C 674.127,786.134 678.127,801.8 682,817.5C 686.652,828.802 695.152,834.635 707.5,835C 723.565,835.631 739.565,836.964 755.5,839C 766.552,841.238 776.885,845.238 786.5,851C 844.868,898.189 902.868,945.855 960.5,994C 975.831,1006.24 993.331,1013.08 1013,1014.5C 1053.46,1009.87 1074.96,987.207 1077.5,946.5C 1077.78,938.069 1076.45,929.903 1073.5,922C 1073.83,921.5 1074.17,921 1074.5,920.5C 1103.52,939.163 1121.69,965.496 1129,999.5C 1134.42,1024.44 1133.42,1049.11 1126,1073.5C 1120.34,1091.01 1110.18,1105.18 1095.5,1116C 1134.46,1123.48 1171.12,1117.14 1205.5,1097C 1245.27,1068.07 1254.77,1031.24 1234,986.5C 1218.76,962.284 1197.26,946.45 1169.5,939C 1238.07,933.07 1295.57,955.237 1342,1005.5C 1378.98,1052.08 1388.31,1103.74 1370,1160.5C 1347.44,1214.39 1308.27,1250.23 1252.5,1268C 1223,1276.88 1193,1279.55 1162.5,1276C 1180.58,1290.2 1200.91,1299.87 1223.5,1305C 1243.67,1310.19 1264,1311.19 1284.5,1308C 1289.37,1307.12 1294.04,1305.62 1298.5,1303.5C 1299.58,1304.36 1299.75,1305.36 1299,1306.5C 1287.99,1321.51 1274.49,1333.68 1258.5,1343C 1222.58,1364.25 1183.91,1376.75 1142.5,1380.5 Z"/></g>
</svg>
