<?xml version="1.0" encoding="UTF-8"?>
<svg id="Layer_2" data-name="Layer 2" xmlns="http://www.w3.org/2000/svg" viewBox="0 0 526.38 465.38">
  <defs>
    <style>
      .cls-1 {
        fill: #cdcacf;
      }

      .cls-2 {
        fill: #24f3cc;
      }

      .cls-3 {
        fill: #9c4cbf;
      }

      .cls-4 {
        fill: #392b3e;
      }
    </style>
  </defs>
  <g id="Layer_1-2" data-name="Layer 1">
    <path class="cls-4" d="m.31,395.88c13.69-7.92,24.39-18.7,31.29-33.02,2.46-5.1,4.22-10.51,6.21-15.81,1.61-4.28,3.31-8.53,4.93-12.81,1.53-4.03,2.96-8.09,4.51-12.11,1.57-4.1,3.28-8.14,4.84-12.24,1.79-4.69,3.47-9.42,5.24-14.11,1.48-3.91,3.02-7.8,4.53-11.7,1.66-4.28,3.24-8.58,4.91-12.85,1.75-4.47,3.52-8.93,5.23-13.42,2.28-6.02,4.56-12.06,6.89-18.06,2.43-6.25,4.81-12.52,7.29-18.76,2.64-6.63,4.99-13.37,7.56-20.03,2.23-5.78,4.72-11.45,6.84-17.26,2.62-7.2,5.59-14.26,8.13-21.49,2.23-6.33,4.95-12.49,7.37-18.76,2.58-6.69,4.9-13.5,7.64-20.13,2.98-7.2,5.62-14.52,8.49-21.76,2.51-6.33,4.8-12.75,7.26-19.1,3.36-8.65,6.84-17.26,10.18-25.92,2.57-6.65,4.9-13.38,7.56-19.99,1.29-3.22,2.66-6.38,3.58-9.75.78-2.84.3-5.49-.79-8.03C157.39,12.67,155.2,6.41,152.91,0c.86,0,1.63,0,2.4,0,47.14,0,94.29,0,141.43,0,2.64,0,2.61,0,1.56,2.33-2.86,6.36-5.75,12.71-8.5,19.12-.88,2.05-.78,4.25.05,6.38,2.39,6.14,4.79,12.29,7.15,18.44,3.93,10.23,7.81,20.49,11.76,30.71,3.16,8.18,6.4,16.34,9.57,24.52,4.36,11.26,8.7,22.53,13.04,33.8,3.61,9.36,7.21,18.72,10.82,28.07,3.66,9.49,7.32,18.97,10.99,28.45,3.9,10.1,7.81,20.19,11.71,30.29,3.48,8.99,6.97,17.98,10.45,26.97,3.51,9.05,7.03,18.1,10.55,27.15,3.76,9.66,7.55,19.31,11.26,28.99,7.26,18.93,15.15,37.58,24.6,55.53,7.41,14.08,15.46,27.77,25.27,40.32,15.42,19.72,34.29,35.21,57.2,45.58,6.37,2.88,12.85,5.5,19.66,7.17.64.16,1.29.27,2.49.52-2.47.76-4.5,1.36-6.51,2-6.86,2.22-13.77,4.28-20.79,5.93-4.6,1.08-9.27,1.78-13.96,2.39-1.57.2-3.28-.18-4.75.72h-27.48c-1.23-1.01-2.78-.51-4.13-.71-4.67-.68-9.26-1.58-13.86-2.64-5.01-1.16-9.93-2.61-14.75-4.36-10.7-3.88-20.9-8.8-30.5-14.98-4.61-2.97-9.18-5.97-13.52-9.31-3.53-2.71-6.91-5.62-10.36-8.43-6.35-5.19-11.91-11.16-17.62-16.96-5.72-5.81-10.73-12.29-15.58-18.86-8.92-12.07-16.31-25.07-22.86-38.53-2.53-5.2-4.58-10.64-6.77-16.01-2.27-5.56-4.47-11.15-6.63-16.74-2.01-5.19-3.9-10.43-5.9-15.62-3.48-9.04-6.91-18.1-10.52-27.08-3.22-8.02-6.2-16.13-9.49-24.12-3.21-7.8-5.94-15.79-8.98-23.65-3.39-8.76-6.94-17.45-10.34-26.2-2.65-6.82-5.14-13.71-7.79-20.53-2.78-7.13-5.73-14.19-8.5-21.32-2.94-7.57-5.75-15.2-8.65-22.79-3.4-8.89-6.78-17.78-10.27-26.64-3.8-9.64-7.55-19.3-11.31-28.96-2.94-7.54-5.9-15.09-8.71-22.69-2.51-6.79-5.21-13.51-7.84-20.25-.22-.56-.47-1.1-.83-1.94-.87,2.22-1.63,4.18-2.4,6.14-2.15,5.45-4.33,10.88-6.45,16.35-1.94,5.03-3.74,10.11-5.72,15.12-3.42,8.64-6.77,17.3-10.12,25.96-3.64,9.39-7.27,18.78-10.9,28.18-2.95,7.63-5.84,15.29-8.84,22.9-3.41,8.65-6.6,17.4-9.94,26.08-3.22,8.37-6.52,16.72-9.76,25.09-3.35,8.67-6.65,17.36-10.01,26.03-2.59,6.71-5.25,13.4-7.85,20.11-3.33,8.62-6.6,17.26-9.93,25.88-3.28,8.49-6.63,16.96-9.89,25.46-4.31,11.21-8.54,22.46-12.86,33.67-3.23,8.36-6.67,16.65-9.8,25.05-1.59,4.26-3.29,8.48-4.86,12.75-.33.9-.11,1.25.84,1.19.47-.03.94,0,1.41,0,31.18,0,62.36.03,93.54-.02,12.25-.02,24.52.17,36.74-.42,14.05-.69,27.75-3.3,40.16-10.52,3.9-2.27,7.57-4.88,11.07-7.75,10.64-8.72,17.39-20.14,23.08-32.38,4.55-9.78,9.33-19.46,14.02-29.18.21-.44.46-.88.89-1.27.4,1.94-.32,3.76-.67,5.57-1.34,6.8-2.83,13.57-4.24,20.36-1.28,6.15-2.55,12.3-3.81,18.45-1.43,6.99-2.84,13.98-4.27,20.96-1.06,5.19-2.16,10.37-3.23,15.56-1.22,5.92-2.42,11.84-3.63,17.77-.41,1.99-.89,3.98-1.18,5.99-.14.94-.44,1.34-1.37,1.25-.27-.03-.54,0-.81,0-85.05,0-170.11,0-255.16,0-.34,0-.67-.02-1.01-.03.03-.15.06-.3.09-.45Z"/>
    <path class="cls-3" d="m224.81,258.41c-.31.52-.55.99-.84,1.43-10.54,16.01-21.09,32.02-31.6,48.05-1.31,2-2.77,3.91-3.73,6.15-.7,1.66-1.49,1.61-2.47.13-5.18-7.81-10.45-15.57-15.56-23.43-6.78-10.44-13.54-20.89-20.61-31.13-.69-1-.21-1.59.27-2.33,3.55-5.4,7.18-10.75,10.63-16.22,4.06-6.44,8.54-12.62,12.57-19.08,4.07-6.51,8.68-12.66,12.53-19.3.9-1.55,1.24-1.22,2.07.05,6.07,9.31,12.2,18.58,18.33,27.85,5.76,8.7,11.56,17.38,17.33,26.07.37.55.7,1.13,1.07,1.74Z"/>
    <path class="cls-2" d="m187.09,188.53c-4.43,6.75-8.76,13.35-13.1,19.94-3.61,5.48-7.26,10.94-10.81,16.45-.87,1.34-1.3,1.57-2.27.05-3.48-5.48-7.03-10.91-10.69-16.28-.78-1.15-.61-1.93.02-2.88,8.06-12.21,16.12-24.41,24.17-36.62,3.86-5.86,7.71-11.73,11.49-17.64.95-1.48,1.39-1.46,2.37.04,9.74,14.91,19.55,29.76,29.34,44.64,2.17,3.3,4.3,6.62,6.49,9.9.5.74.67,1.31.1,2.16-3.74,5.63-7.42,11.3-11.13,16.95-.53.8-.94,1.42-1.82.06-7.63-11.78-15.35-23.51-23.05-35.25-.29-.44-.63-.85-1.13-1.53Z"/>
    <path class="cls-1" d="m.31,395.88c-.03.15-.06.3-.09.45-.07-.06-.15-.13-.22-.19.1-.08.21-.17.31-.25Z"/>
  </g>
</svg>