<?xml version="1.0" encoding="UTF-8"?>
<!DOCTYPE svg PUBLIC "-//W3C//DTD SVG 1.1//EN" "http://www.w3.org/Graphics/SVG/1.1/DTD/svg11.dtd">
<svg xmlns="http://www.w3.org/2000/svg" version="1.1" width="630px" height="765px" style="shape-rendering:geometricPrecision; text-rendering:geometricPrecision; image-rendering:optimizeQuality; fill-rule:evenodd; clip-rule:evenodd" xmlns:xlink="http://www.w3.org/1999/xlink">
<g><path style="opacity:0.998" fill="#f70751" d="M 393.5,-0.5 C 394.5,-0.5 395.5,-0.5 396.5,-0.5C 397.412,0.738195 397.579,2.07153 397,3.5C 394.833,5.66667 392.667,7.83333 390.5,10C 392.32,10.9794 393.487,12.4794 394,14.5C 395.978,13.1837 397.478,13.6837 398.5,16C 388.941,48.0078 378.608,79.6745 367.5,111C 366.167,111.667 364.833,111.667 363.5,111C 362.718,108.26 362.218,105.426 362,102.5C 358.096,113.544 355.43,124.877 354,136.5C 351.859,180.024 352.025,223.524 354.5,267C 354.67,272.785 354.004,278.452 352.5,284C 354.081,296.458 354.581,308.958 354,321.5C 352.951,322.517 351.784,322.684 350.5,322C 349.475,319.929 348.642,317.762 348,315.5C 347.895,319.37 347.062,323.037 345.5,326.5C 343.364,325.528 342.197,323.861 342,321.5C 339.092,284.329 335.092,247.329 330,210.5C 332.709,209.294 334.375,210.294 335,213.5C 332.958,202.003 329.958,190.669 326,179.5C 319.636,168.737 315.47,157.237 313.5,145C 314.924,139.396 316.757,133.896 319,128.5C 326.263,113.543 333.43,98.543 340.5,83.5C 340.167,83.1667 339.833,82.8333 339.5,82.5C 298.807,121.364 259.474,161.864 221.5,204C 215.094,205.769 212.094,210.103 212.5,217C 213.602,224.536 216.602,231.202 221.5,237C 241.877,249.784 260.711,264.618 278,281.5C 286.391,292.892 294.391,304.559 302,316.5C 305.666,322.83 308.499,329.497 310.5,336.5C 313.495,337.664 316.495,338.83 319.5,340C 328.313,340.461 336.646,342.627 344.5,346.5C 345.429,345.311 345.762,343.978 345.5,342.5C 348.649,342.211 351.649,342.711 354.5,344C 365.071,352.239 373.904,362.072 381,373.5C 386.016,383.531 391.016,393.531 396,403.5C 401.356,411.69 408.189,418.356 416.5,423.5C 417.747,425.042 417.747,426.542 416.5,428C 412.76,428.078 409.093,427.745 405.5,427C 407.747,428.995 408.747,431.495 408.5,434.5C 406.473,434.338 404.473,434.505 402.5,435C 406.744,439.915 411.577,444.081 417,447.5C 418.654,455.083 415.821,457.916 408.5,456C 408.966,457.299 408.966,458.799 408.5,460.5C 404.014,461.006 400.181,459.672 397,456.5C 396.1,457.77 394.934,458.77 393.5,459.5C 394.48,460.981 395.647,462.315 397,463.5C 397.814,468.679 395.981,469.846 391.5,467C 381.184,458.539 374.85,447.706 372.5,434.5C 373.552,434.649 374.552,434.483 375.5,434C 370.671,422.184 365.838,410.35 361,398.5C 353.37,387.269 343.203,379.269 330.5,374.5C 329.322,377.391 328.655,380.391 328.5,383.5C 327.5,383.5 326.5,383.5 325.5,383.5C 325.784,398.202 325.45,412.869 324.5,427.5C 323.5,427.5 322.5,427.5 321.5,427.5C 321.002,424.513 320.502,421.513 320,418.5C 320.75,462.002 321.917,505.502 323.5,549C 323.333,557.167 323.167,565.333 323,573.5C 322.713,575.891 322.213,578.224 321.5,580.5C 319.326,581.893 317.493,581.56 316,579.5C 314.305,565.216 313.305,550.883 313,536.5C 310.978,525.807 308.978,515.141 307,504.5C 305.184,484.536 304.018,464.536 303.5,444.5C 302.178,444.67 301.011,444.337 300,443.5C 299.667,441.5 299.333,439.5 299,437.5C 297.855,420.857 297.189,404.19 297,387.5C 296.808,385.423 296.308,383.423 295.5,381.5C 281.009,388.23 269.676,398.396 261.5,412C 259.382,413.142 257.382,413.642 255.5,413.5C 250.959,421.416 246.293,429.249 241.5,437C 242.448,437.483 243.448,437.649 244.5,437.5C 243.824,441.187 242.324,444.52 240,447.5C 234.135,454.711 227.135,460.377 219,464.5C 217.812,463.437 217.312,462.103 217.5,460.5C 213.36,460.311 209.36,459.644 205.5,458.5C 205.34,456.801 205.506,455.134 206,453.5C 208.08,450.935 209.913,448.268 211.5,445.5C 208.981,448.759 205.648,450.426 201.5,450.5C 202.596,446.551 203.762,442.551 205,438.5C 209.524,434.155 213.024,429.155 215.5,423.5C 216.906,423.027 217.573,422.027 217.5,420.5C 218.338,420.158 218.672,419.492 218.5,418.5C 219.338,418.158 219.672,417.492 219.5,416.5C 220.338,416.158 220.672,415.492 220.5,414.5C 221.338,414.158 221.672,413.492 221.5,412.5C 231.282,391.782 243.949,372.949 259.5,356C 269.712,347.146 281.546,341.646 295,339.5C 297.364,340.512 298.698,341.845 299,343.5C 301.535,343.235 303.368,342.069 304.5,340C 301.68,336.511 298.847,333.011 296,329.5C 295.79,330.803 295.957,332.136 296.5,333.5C 296.471,335.029 295.804,336.196 294.5,337C 290.585,337.237 286.919,336.403 283.5,334.5C 276.138,324.305 268.972,313.971 262,303.5C 255.532,296.03 248.698,288.864 241.5,282C 221.885,268.052 202.552,253.719 183.5,239C 179.964,234.763 176.798,230.263 174,225.5C 172.876,222.558 172.542,219.558 173,216.5C 174.011,215.663 175.178,215.33 176.5,215.5C 178.184,207.634 181.851,200.801 187.5,195C 185.717,193.933 185.217,192.433 186,190.5C 202.8,171.7 220.3,153.533 238.5,136C 267.594,108.233 297.261,81.2333 327.5,55C 329.025,53.9914 330.692,53.4914 332.5,53.5C 332.095,55.6498 331.595,57.6498 331,59.5C 341.132,51.037 350.965,42.2037 360.5,33C 358.398,31.2705 358.565,29.4372 361,27.5C 371.141,17.1798 381.974,7.84647 393.5,-0.5 Z M 326.5,61.5 C 329.001,61.5109 329.168,62.1776 327,63.5C 326.536,62.9056 326.369,62.2389 326.5,61.5 Z M 337.5,224.5 C 339.245,227.885 339.745,231.552 339,235.5C 338.281,231.855 337.781,228.188 337.5,224.5 Z M 231.5,415.5 C 234.958,406.583 239.458,398.249 245,390.5C 241.063,399.034 236.563,407.368 231.5,415.5 Z M 231.5,415.5 C 230.59,418.992 228.924,421.992 226.5,424.5C 227.41,421.008 229.076,418.008 231.5,415.5 Z M 223.5,430.5 C 223.573,432.027 222.906,433.027 221.5,433.5C 221.427,431.973 222.094,430.973 223.5,430.5 Z M 221.5,433.5 C 221.573,435.027 220.906,436.027 219.5,436.5C 219.427,434.973 220.094,433.973 221.5,433.5 Z M 214.5,442.5 C 214.5,444.5 213.5,445.5 211.5,445.5C 212.167,444.167 213.167,443.167 214.5,442.5 Z"/></g>
<g><path style="opacity:0.998" fill="#f70751" d="M 572.5,304.5 C 580.049,300.816 587.883,297.816 596,295.5C 599.032,295.67 600.199,297.003 599.5,299.5C 587.728,304.552 576.395,310.386 565.5,317C 524.798,345.032 490.965,379.532 464,420.5C 465.495,417.498 467.828,415.498 471,414.5C 472.28,414.613 473.113,415.28 473.5,416.5C 458.521,435.126 444.521,454.459 431.5,474.5C 432.687,474.554 434.02,474.887 435.5,475.5C 428.309,489.381 420.976,503.214 413.5,517C 414.554,518.388 414.72,519.888 414,521.5C 377.344,593.818 347.178,668.651 323.5,746C 322.004,746.507 320.837,746.007 320,744.5C 319.505,742.527 319.338,740.527 319.5,738.5C 318.776,742.365 318.109,746.365 317.5,750.5C 318.687,750.554 320.02,750.887 321.5,751.5C 322.353,754.811 322.186,758.144 321,761.5C 319.921,763.394 318.587,763.727 317,762.5C 316.283,763.044 315.783,763.711 315.5,764.5C 314.167,764.5 312.833,764.5 311.5,764.5C 310.56,762.388 309.394,760.388 308,758.5C 306.149,745.053 302.982,732.053 298.5,719.5C 299.82,725.105 300.32,730.772 300,736.5C 298.853,737.458 297.853,737.125 297,735.5C 280.253,689.588 262.919,643.922 245,598.5C 233.452,572.406 221.119,546.739 208,521.5C 207.486,517.735 208.986,516.735 212.5,518.5C 216.86,525.897 221.193,533.23 225.5,540.5C 206.053,497.584 181.553,457.917 152,421.5C 150.097,419.559 149.264,417.226 149.5,414.5C 152.959,415.436 155.793,417.436 158,420.5C 158.667,419.833 158.667,419.167 158,418.5C 128.041,376.874 91.8747,341.707 49.5,313C 40.8383,308.086 32.0049,303.586 23,299.5C 22.9666,297.123 24.2999,295.79 27,295.5C 33.9103,298.041 40.7436,300.708 47.5,303.5C 38.076,296.957 27.7427,292.29 16.5,289.5C 16.762,288.022 16.4287,286.689 15.5,285.5C 11.9328,284.093 8.76616,282.093 6,279.5C 5.33333,278.5 5.33333,277.5 6,276.5C 7.72609,275.424 9.55942,275.257 11.5,276C 18.2133,278.569 24.88,280.903 31.5,283C 28.5437,279.868 29.2104,277.868 33.5,277C 28.9223,275.222 24.9223,272.722 21.5,269.5C 21.5743,267.261 22.741,266.261 25,266.5C 40.724,272.025 54.724,280.358 67,291.5C 67.4317,292.6 66.9317,293.267 65.5,293.5C 60.5228,292.006 60.1894,292.839 64.5,296C 112.345,330.175 151.511,372.342 182,422.5C 181.554,419.562 181.054,416.562 180.5,413.5C 181.978,413.238 183.311,413.571 184.5,414.5C 190.026,422.718 194.359,431.552 197.5,441C 196.616,442.098 195.616,442.598 194.5,442.5C 195,443.5 195.5,444.5 196,445.5C 201.038,454.254 207.038,462.254 214,469.5C 219.402,478.582 224.402,487.915 229,497.5C 230.067,495.717 231.567,495.217 233.5,496C 235.998,500.89 239.498,504.723 244,507.5C 248.588,515.676 252.922,524.009 257,532.5C 271.252,564.923 284.919,597.59 298,630.5C 305.181,648.891 310.014,667.891 312.5,687.5C 312.563,689.481 311.896,691.148 310.5,692.5C 311,693.5 311.5,694.5 312,695.5C 317.86,668.391 324.194,641.391 331,614.5C 335.07,600.197 340.904,586.697 348.5,574C 349.6,573.568 350.267,574.068 350.5,575.5C 349.604,577.801 349.438,580.134 350,582.5C 364.28,542.614 381.78,504.28 402.5,467.5C 404.937,464.563 406.603,464.896 407.5,468.5C 407.113,470.274 406.447,471.941 405.5,473.5C 405.846,474.696 406.346,474.696 407,473.5C 408.746,469.673 410.746,466.007 413,462.5C 420.003,456.482 425.003,449.149 428,440.5C 426.684,443.028 425.517,443.028 424.5,440.5C 427.894,430.033 433.061,420.699 440,412.5C 441.81,414.484 441.976,416.651 440.5,419C 440.611,420.722 441.111,420.888 442,419.5C 453.176,401.988 465.51,385.322 479,369.5C 478.575,367.945 477.742,366.445 476.5,365C 485.334,352.157 495.667,340.49 507.5,330C 534.966,304.096 565.966,283.429 600.5,268C 603.503,266.69 606.503,266.524 609.5,267.5C 609.333,267.833 609.167,268.167 609,268.5C 603.833,271.667 598.667,274.833 593.5,278C 592.5,279.667 591.5,281.333 590.5,283C 598.161,280.836 605.827,278.336 613.5,275.5C 616.427,276.188 617.094,277.855 615.5,280.5C 612.852,282.658 609.852,283.992 606.5,284.5C 606.703,286.39 606.037,287.89 604.5,289C 593.11,292.863 582.443,298.03 572.5,304.5 Z M 47.5,303.5 C 49.0269,303.427 50.0269,304.094 50.5,305.5C 48.9731,305.573 47.9731,304.906 47.5,303.5 Z M 572.5,304.5 C 572.027,305.906 571.027,306.573 569.5,306.5C 569.973,305.094 570.973,304.427 572.5,304.5 Z M 569.5,306.5 C 569.027,307.906 568.027,308.573 566.5,308.5C 566.973,307.094 567.973,306.427 569.5,306.5 Z M 231.5,415.5 C 236.563,407.368 241.063,399.034 245,390.5C 239.458,398.249 234.958,406.583 231.5,415.5 Z M 231.5,415.5 C 230.59,418.992 228.924,421.992 226.5,424.5C 227.41,421.008 229.076,418.008 231.5,415.5 Z M 217.5,420.5 C 217.573,422.027 216.906,423.027 215.5,423.5C 215.427,421.973 216.094,420.973 217.5,420.5 Z M 223.5,430.5 C 223.573,432.027 222.906,433.027 221.5,433.5C 221.427,431.973 222.094,430.973 223.5,430.5 Z M 221.5,433.5 C 221.573,435.027 220.906,436.027 219.5,436.5C 219.427,434.973 220.094,433.973 221.5,433.5 Z M 214.5,442.5 C 214.5,444.5 213.5,445.5 211.5,445.5C 212.167,444.167 213.167,443.167 214.5,442.5 Z M 404.5,525.5 C 405.149,520.913 407.483,518.08 411.5,517C 408.79,519.628 406.456,522.461 404.5,525.5 Z M 225.5,540.5 C 227.539,541.911 228.539,543.911 228.5,546.5C 226.992,544.819 225.992,542.819 225.5,540.5 Z M 253.5,599.5 C 255.293,601.426 256.293,603.759 256.5,606.5C 254.707,604.574 253.707,602.241 253.5,599.5 Z M 368.5,600.5 C 368.293,603.241 367.293,605.574 365.5,607.5C 365.707,604.759 366.707,602.426 368.5,600.5 Z M 256.5,606.5 C 273.539,642.934 287.539,680.601 298.5,719.5C 284.915,681.753 270.915,644.087 256.5,606.5 Z M 365.5,607.5 C 355.108,635.17 344.608,662.837 334,690.5C 328.833,706.526 324,722.526 319.5,738.5C 319.272,733.325 320.105,728.325 322,723.5C 333.48,683.569 347.98,644.902 365.5,607.5 Z"/></g>
<g><path style="opacity:0.998" fill="#f70751" d="M 93.5,353.5 C 95.3084,353.491 96.9751,353.991 98.5,355C 112.496,368.32 124.996,382.82 136,398.5C 137.009,400.025 137.509,401.692 137.5,403.5C 136.448,403.649 135.448,403.483 134.5,403C 120.667,387.833 106.833,372.667 93,357.5C 92.4209,356.072 92.5876,354.738 93.5,353.5 Z"/></g>
<g><path style="opacity:0.99" fill="#f70751" d="M 525.5,353.5 C 529.073,353.977 529.906,355.644 528,358.5C 514.714,373.439 501.214,388.106 487.5,402.5C 486.5,403.833 485.5,403.833 484.5,402.5C 487.167,397.162 490.334,392.162 494,387.5C 504.027,375.643 514.527,364.31 525.5,353.5 Z"/></g>
<g><path style="opacity:0.984" fill="#f70751" d="M 221.5,412.5 C 220.662,412.842 220.328,413.508 220.5,414.5C 219.662,414.842 219.328,415.508 219.5,416.5C 218.662,416.842 218.328,417.508 218.5,418.5C 217.662,418.842 217.328,419.508 217.5,420.5C 216.094,420.973 215.427,421.973 215.5,423.5C 211.126,429.204 205.793,433.871 199.5,437.5C 198.354,436.855 197.354,436.022 196.5,435C 203.815,427.347 210.815,419.347 217.5,411C 219.794,408.784 221.128,409.284 221.5,412.5 Z"/></g>
<g><path style="opacity:0.998" fill="#f70751" d="M 629.5,571.5 C 629.5,573.167 629.5,574.833 629.5,576.5C 628.636,577.688 627.636,578.855 626.5,580C 628.984,582.284 629.151,584.784 627,587.5C 620.708,594.396 612.875,598.229 603.5,599C 595.841,599.5 588.174,599.666 580.5,599.5C 560.966,595.648 544.133,586.648 530,572.5C 529.333,573.167 529.333,573.833 530,574.5C 534.838,578.472 537.671,583.472 538.5,589.5C 537.448,589.649 536.448,589.483 535.5,589C 525.643,581.141 517.143,571.974 510,561.5C 500.294,545.053 490.96,528.386 482,511.5C 477.867,506.366 473.367,501.532 468.5,497C 462.455,491.232 455.955,486.065 449,481.5C 446.779,478.599 447.446,476.599 451,475.5C 455.192,478.503 456.025,478.003 453.5,474C 453.82,472.347 454.82,471.347 456.5,471C 453.911,469.803 451.244,468.803 448.5,468C 447.483,466.951 447.316,465.784 448,464.5C 449.5,463 451,461.5 452.5,460C 456.32,459.765 459.987,458.932 463.5,457.5C 478.561,462.947 491.061,471.947 501,484.5C 513.253,505.337 525.253,526.337 537,547.5C 537.758,549.769 537.591,551.936 536.5,554C 537.701,554.903 538.535,556.069 539,557.5C 540.525,554.913 542.692,554.08 545.5,555C 549.753,557.71 553.92,560.543 558,563.5C 558.72,565.112 558.554,566.612 557.5,568C 555.5,568 553.5,568 551.5,568C 564.57,575.435 578.57,578.768 593.5,578C 598.446,577.597 603.113,576.264 607.5,574C 612.12,569.062 616.287,563.896 620,558.5C 625.352,562.292 625.852,566.792 621.5,572C 623.256,572.14 624.922,571.64 626.5,570.5C 627.417,571.127 628.417,571.461 629.5,571.5 Z"/></g>
<g><path style="opacity:0.998" fill="#f70751" d="M -0.5,583.5 C -0.5,582.167 -0.5,580.833 -0.5,579.5C 2.25847,577.952 4.75847,578.285 7,580.5C 6.54325,577.753 6.04325,574.92 5.5,572C 5.2599,568.974 6.42656,566.808 9,565.5C 12.7803,570.845 16.947,576.011 21.5,581C 31.0695,585.202 41.0695,586.535 51.5,585C 60.2685,583.188 68.6018,580.188 76.5,576C 77.6956,575.346 77.6956,574.846 76.5,574.5C 74.802,575.681 73.1353,575.681 71.5,574.5C 70.6744,573.549 70.5078,572.549 71,571.5C 75.7747,567.531 80.9414,564.198 86.5,561.5C 88.1338,561.968 89.3005,562.968 90,564.5C 90.6667,563.833 91.3333,563.167 92,562.5C 91.6948,560.557 91.6948,558.557 92,556.5C 102.587,537.66 112.921,518.66 123,499.5C 132.714,484.232 145.88,473.065 162.5,466C 167.723,466.642 173.057,467.475 178.5,468.5C 180.031,469.613 181.031,471.113 181.5,473C 181.167,473.833 180.833,474.667 180.5,475.5C 178.205,476.432 175.871,477.265 173.5,478C 175.602,479.733 175.935,481.733 174.5,484C 176.163,484.265 177.663,483.765 179,482.5C 181.395,484.081 181.895,486.081 180.5,488.5C 165.854,498.646 153.354,510.979 143,525.5C 136.445,539.612 129.111,553.279 121,566.5C 113.961,577.876 105.128,587.709 94.5,596C 92.3927,596.854 91.0593,596.188 90.5,594C 92.5973,590.232 95.0973,586.732 98,583.5C 98.6667,582.833 98.6667,582.167 98,581.5C 84.3687,594.566 68.202,602.733 49.5,606C 40.8333,606.667 32.1667,606.667 23.5,606C 13.7118,605.193 6.21179,600.693 1,592.5C 0.37596,590.536 0.87596,588.869 2.5,587.5C 1.96486,585.739 0.964857,584.406 -0.5,583.5 Z"/></g>
<g><path style="opacity:0.991" fill="#f70751" d="M 580.5,599.5 C 588.475,602.514 596.642,602.847 605,600.5C 609.589,603.053 609.422,605.553 604.5,608C 593.269,609.889 582.269,608.889 571.5,605C 569.545,604.047 567.878,602.713 566.5,601C 570.972,599.563 575.639,599.063 580.5,599.5 Z"/></g>
<g><path style="opacity:0.998" fill="#f70751" d="M 51.5,606.5 C 54.5184,606.335 57.5184,606.502 60.5,607C 61.3081,607.308 61.9747,607.808 62.5,608.5C 58.7521,612.452 54.0854,614.618 48.5,615C 39.6849,617.299 31.0182,616.965 22.5,614C 20.4732,612.604 20.1398,610.938 21.5,609C 31.7755,610.171 41.7755,609.338 51.5,606.5 Z"/></g>
</svg>
