<?xml version="1.0" encoding="UTF-8"?>
<!DOCTYPE svg PUBLIC "-//W3C//DTD SVG 1.1//EN" "http://www.w3.org/Graphics/SVG/1.1/DTD/svg11.dtd">
<svg xmlns="http://www.w3.org/2000/svg" version="1.1" width="103px" height="118px" style="shape-rendering:geometricPrecision; text-rendering:geometricPrecision; image-rendering:optimizeQuality; fill-rule:evenodd; clip-rule:evenodd" xmlns:xlink="http://www.w3.org/1999/xlink">
<g><path fill="#d1722b" d="M 48.5,-0.5 C 49.1667,-0.5 49.8333,-0.5 50.5,-0.5C 52.4668,2.57862 54.8001,5.41195 57.5,8C 81.934,12.9365 96.934,27.4365 102.5,51.5C 102.5,56.8333 102.5,62.1667 102.5,67.5C 97.583,83.8281 87.583,95.9948 72.5,104C 68.5796,105.313 64.5796,106.313 60.5,107C 57.0311,109.974 54.3645,113.474 52.5,117.5C 51.5,117.5 50.5,117.5 49.5,117.5C 47.6426,113.154 44.8092,109.488 41,106.5C 40.6667,106.833 40.3333,107.167 40,107.5C 19.8376,102.521 6.3376,89.8546 -0.5,69.5C -0.5,62.1667 -0.5,54.8333 -0.5,47.5C 3.03864,35.929 9.03864,25.7623 17.5,17C 25.1394,13.0095 33.1394,10.0095 41.5,8C 43.7221,5.04383 46.0554,2.2105 48.5,-0.5 Z M 47.5,23.5 C 50.5176,23.7038 53.5176,24.0371 56.5,24.5C 56.2148,26.288 56.5481,27.9547 57.5,29.5C 62.8548,24.381 67.5215,25.0477 71.5,31.5C 75.2854,31.2341 78.2854,32.9008 80.5,36.5C 79.6906,38.0709 79.3573,39.7376 79.5,41.5C 81.1439,41.2865 82.6439,41.6198 84,42.5C 87.2349,46.8662 86.7349,50.3662 82.5,53C 83.5634,54.1882 84.8967,54.6882 86.5,54.5C 86.6658,59.1785 86.4992,63.8452 86,68.5C 79.4765,69.1472 78.9765,70.9805 84.5,74C 82.5322,77.9599 79.8655,81.2932 76.5,84C 75.5,84.1667 74.5,84.3333 73.5,84.5C 71.0305,82.8242 68.3638,81.9908 65.5,82C 64.9781,82.5613 64.6448,83.228 64.5,84C 65.8561,85.5671 66.5228,87.4004 66.5,89.5C 59.3508,90.3456 52.0174,91.0123 44.5,91.5C 44.5,89.1667 44.5,86.8333 44.5,84.5C 42.0219,85.1949 40.0219,86.6949 38.5,89C 34.554,89.3656 31.2207,88.0323 28.5,85C 30.5268,83.6043 30.8602,81.9376 29.5,80C 27.4328,79.4644 25.5994,79.9644 24,81.5C 21.782,79.8178 19.9486,77.8178 18.5,75.5C 18.9312,74.7065 19.2645,73.8732 19.5,73C 18.0285,72.888 16.8619,71.7213 16,69.5C 14.4769,62.6377 14.4769,55.971 16,49.5C 17.586,48.624 19.086,47.624 20.5,46.5C 17.5911,42.3223 18.5911,39.6557 23.5,38.5C 23.8771,32.6164 26.8771,30.4498 32.5,32C 31.1667,30.6667 31.1667,29.3333 32.5,28C 35.2729,25.7185 38.2729,25.2185 41.5,26.5C 43.4268,25.1376 45.4268,24.1376 47.5,23.5 Z"/></g>
<g><path fill="#d1722b" d="M 49.5,34.5 C 50.3764,34.3691 51.0431,34.7025 51.5,35.5C 56.7276,47.4039 57.8943,59.7373 55,72.5C 51.474,84.3895 48.474,84.0562 46,71.5C 44.9265,67.0403 44.0931,62.5403 43.5,58C 44.5864,49.9121 46.5864,42.0788 49.5,34.5 Z"/></g>
</svg>
